<svg xmlns:svg="http://www.w3.org/2000/svg" xmlns="http://www.w3.org/2000/svg" viewBox="0 0 380 280"><svg viewBox="0 0 380 280"/><path d="M198.425 163.278l-2.4-6.68h-13.2l-2.44 6.68h-6.8l12.48-30.96h7.08l11.92 30.96zm-8.88-24.08l-4.52 11.8h8.84z" aria-label="A" font-size="40" font-family="HelloFont WenYiHei" fill="#3e995d"/><path d="M211.545 163.357q-1.8 0-3.12-1.32-1.28-1.28-1.28-3.16v-22.04q0-1.88 1.28-3.16 1.32-1.32 3.12-1.32h20.84v5.4h-18.84v20.2h18.84v5.4z" aria-label="C" font-size="40" font-family="HelloFont WenYiHei" fill="#3e995d"/><svg height="72" width="69.605" y="106.063" x="147.447"><svg viewBox="0 0 70.05 72.46"><path d="M58.1 5.64h.09a8.46 8.46 0 11-5 7.15C37.92 2.3 16.68 9.27 9.77 23.84a33.14 33.14 0 002.36 33.46C19.35 68 34.72 72.46 34.72 72.46A36.06 36.06 0 019.46 12.05C21.93-1.55 42.79-3.57 58.1 5.64z" fill="#3e995d" fill-rule="evenodd"/></svg></svg></svg>