<svg
   xmlns:dc="http://purl.org/dc/elements/1.1/"
   xmlns:cc="http://creativecommons.org/ns#"
   xmlns:rdf="http://www.w3.org/1999/02/22-rdf-syntax-ns#"
   xmlns:svg="http://www.w3.org/2000/svg"
   xmlns="http://www.w3.org/2000/svg"
   id="svg14"
   version="1.1"
   viewBox="0 0  380 280">
  <metadata
     id="metadata20">
    <rdf:RDF>
      <cc:Work
         rdf:about="">
        <dc:format>image/svg+xml</dc:format>
        <dc:type
           rdf:resource="http://purl.org/dc/dcmitype/StillImage" />
      </cc:Work>
    </rdf:RDF>
  </metadata>
  <defs
     id="defs18" />
  <svg
     height="100%"
     width="100%"
     id="svg2"
     version="1.1"
     viewBox="0 0 380 280" />
  <g
     id="text4"
     style="font-size:40px;font-family:'HelloFont WenYiHei';fill:#3e995d;fill-opacity:1"
     aria-label="A">
    <path
       id="path22"
       style="font-size:40px;font-family:'HelloFont WenYiHei';fill:#3e995d;fill-opacity:1"
       d="m 198.425,163.2775 -2.4,-6.68 h -13.2 l -2.44,6.68 h -6.8 l 12.48,-30.96 h 7.08 l 11.92,30.96 z m -8.88,-24.08 -4.52,11.8 h 8.84 z" />
  </g>
  <g
     id="text6"
     style="font-size:40px;font-family:'HelloFont WenYiHei';fill:#3e995d;fill-opacity:1"
     aria-label="C">
    <path
       id="path25"
       style="font-size:40px;font-family:'HelloFont WenYiHei';fill:#3e995d;fill-opacity:1"
       d="m 211.545,163.3575 q -1.8,0 -3.12,-1.32 -1.28,-1.28 -1.28,-3.16 v -22.04 q 0,-1.88 1.28,-3.16 1.32,-1.32 3.12,-1.32 h 20.84 v 5.4 h -18.84 v 20.2 h 18.84 v 5.4 z" />
  </g>
  <svg
     id="svg12"
     version="1.1"
     height="72"
     width="69.605301"
     y="106.0625"
     x="147.44736">
    <svg
       height="100%"
       width="100%"
       id="svg10"
       version="1.1"
       viewBox="0 0 70.05 72.46">
      <path
         style="fill:#3e995d;fill-rule:evenodd"
         id="path8"
         d="m 58.1,5.64 h 0.09 a 8.46,8.46 0 1 1 -5,7.15 C 37.92,2.3 16.68,9.27 9.77,23.84 A 33.14,33.14 0 0 0 12.13,57.3 C 19.35,68 34.72,72.46 34.72,72.46 A 36.06,36.06 0 0 1 9.46,12.05 C 21.93,-1.55 42.79,-3.57 58.1,5.64 Z" />
    </svg>
  </svg>
</svg>
